<svg width="385" height="90" viewBox="0 0 385 90" fill="none" xmlns="http://www.w3.org/2000/svg">
<path d="M158.456 26.016H169.688C172.408 26.016 174.984 26.32 177.416 26.928C179.88 27.536 182.024 28.528 183.848 29.904C185.672 31.248 187.112 33.008 188.168 35.184C189.256 37.36 189.8 40 189.8 43.104C189.8 45.856 189.272 48.288 188.216 50.4C187.192 52.48 185.8 54.24 184.04 55.68C182.28 57.088 180.248 58.16 177.944 58.896C175.64 59.632 173.224 60 170.696 60H158.456V26.016ZM165.944 53.088H169.832C171.56 53.088 173.16 52.912 174.632 52.56C176.136 52.208 177.432 51.632 178.52 50.832C179.608 50 180.456 48.928 181.064 47.616C181.704 46.272 182.024 44.64 182.024 42.72C182.024 41.056 181.704 39.616 181.064 38.4C180.456 37.152 179.624 36.128 178.568 35.328C177.512 34.528 176.264 33.936 174.824 33.552C173.416 33.136 171.928 32.928 170.36 32.928H165.944V53.088ZM208.606 57.072H208.51C207.71 58.32 206.638 59.216 205.294 59.76C203.982 60.304 202.59 60.576 201.118 60.576C200.03 60.576 198.974 60.416 197.95 60.096C196.958 59.808 196.078 59.36 195.31 58.752C194.542 58.144 193.934 57.392 193.486 56.496C193.038 55.6 192.814 54.56 192.814 53.376C192.814 52.032 193.054 50.896 193.534 49.968C194.046 49.04 194.718 48.272 195.55 47.664C196.414 47.056 197.39 46.592 198.478 46.272C199.566 45.92 200.686 45.664 201.838 45.504C203.022 45.344 204.19 45.248 205.342 45.216C206.526 45.184 207.614 45.168 208.606 45.168C208.606 43.888 208.142 42.88 207.214 42.144C206.318 41.376 205.246 40.992 203.998 40.992C202.814 40.992 201.726 41.248 200.734 41.76C199.774 42.24 198.91 42.912 198.142 43.776L194.302 39.84C195.646 38.592 197.214 37.664 199.006 37.056C200.798 36.416 202.654 36.096 204.574 36.096C206.686 36.096 208.414 36.368 209.758 36.912C211.134 37.424 212.222 38.192 213.022 39.216C213.854 40.24 214.43 41.504 214.75 43.008C215.07 44.48 215.23 46.192 215.23 48.144V60H208.606V57.072ZM206.83 49.776C206.286 49.776 205.598 49.808 204.766 49.872C203.966 49.904 203.182 50.032 202.414 50.256C201.678 50.48 201.038 50.816 200.494 51.264C199.982 51.712 199.726 52.336 199.726 53.136C199.726 54 200.094 54.64 200.83 55.056C201.566 55.472 202.334 55.68 203.134 55.68C203.838 55.68 204.51 55.584 205.15 55.392C205.822 55.2 206.414 54.928 206.926 54.576C207.438 54.224 207.838 53.776 208.126 53.232C208.446 52.688 208.606 52.048 208.606 51.312V49.776H206.83ZM232.947 43.536C231.891 42.224 230.499 41.568 228.771 41.568C228.163 41.568 227.571 41.712 226.995 42C226.419 42.288 226.131 42.784 226.131 43.488C226.131 44.064 226.419 44.496 226.995 44.784C227.603 45.04 228.355 45.28 229.251 45.504C230.179 45.696 231.155 45.92 232.179 46.176C233.235 46.4 234.211 46.768 235.107 47.28C236.035 47.792 236.787 48.496 237.363 49.392C237.971 50.256 238.275 51.424 238.275 52.896C238.275 54.4 237.939 55.648 237.267 56.64C236.627 57.6 235.795 58.384 234.771 58.992C233.747 59.568 232.595 59.968 231.315 60.192C230.035 60.448 228.771 60.576 227.523 60.576C225.891 60.576 224.243 60.352 222.579 59.904C220.915 59.424 219.507 58.592 218.355 57.408L222.723 52.56C223.395 53.392 224.131 54.032 224.931 54.48C225.763 54.896 226.723 55.104 227.811 55.104C228.643 55.104 229.395 54.992 230.067 54.768C230.739 54.512 231.075 54.064 231.075 53.424C231.075 52.816 230.771 52.368 230.163 52.08C229.587 51.76 228.835 51.504 227.907 51.312C227.011 51.088 226.035 50.864 224.979 50.64C223.955 50.384 222.979 50.016 222.051 49.536C221.155 49.056 220.403 48.384 219.795 47.52C219.219 46.624 218.931 45.44 218.931 43.968C218.931 42.592 219.203 41.408 219.747 40.416C220.323 39.424 221.059 38.608 221.955 37.968C222.883 37.328 223.939 36.864 225.123 36.576C226.307 36.256 227.507 36.096 228.723 36.096C230.259 36.096 231.811 36.32 233.379 36.768C234.947 37.216 236.275 38.016 237.363 39.168L232.947 43.536ZM249.166 23.712V39.84H249.262C249.422 39.392 249.694 38.944 250.078 38.496C250.462 38.048 250.926 37.648 251.47 37.296C252.014 36.944 252.654 36.656 253.39 36.432C254.126 36.208 254.926 36.096 255.79 36.096C257.614 36.096 259.086 36.384 260.206 36.96C261.326 37.504 262.19 38.272 262.798 39.264C263.438 40.256 263.87 41.424 264.094 42.768C264.318 44.112 264.43 45.568 264.43 47.136V60H257.23V48.576C257.23 47.904 257.198 47.216 257.134 46.512C257.102 45.776 256.958 45.104 256.702 44.496C256.478 43.888 256.11 43.392 255.598 43.008C255.118 42.624 254.414 42.432 253.486 42.432C252.558 42.432 251.806 42.608 251.23 42.96C250.654 43.28 250.206 43.728 249.886 44.304C249.598 44.848 249.406 45.472 249.31 46.176C249.214 46.88 249.166 47.616 249.166 48.384V60H241.966V23.712H249.166ZM270.728 26.016H293.528V32.928H278.216V39.84H292.376V46.752H278.216V60H270.728V26.016ZM297.118 48.336C297.118 46.48 297.454 44.8 298.126 43.296C298.798 41.792 299.71 40.512 300.862 39.456C302.046 38.368 303.422 37.536 304.99 36.96C306.59 36.384 308.286 36.096 310.078 36.096C311.87 36.096 313.55 36.384 315.118 36.96C316.718 37.536 318.094 38.368 319.246 39.456C320.43 40.512 321.358 41.792 322.03 43.296C322.702 44.8 323.038 46.48 323.038 48.336C323.038 50.192 322.702 51.872 322.03 53.376C321.358 54.88 320.43 56.176 319.246 57.264C318.094 58.32 316.718 59.136 315.118 59.712C313.55 60.288 311.87 60.576 310.078 60.576C308.286 60.576 306.59 60.288 304.99 59.712C303.422 59.136 302.046 58.32 300.862 57.264C299.71 56.176 298.798 54.88 298.126 53.376C297.454 51.872 297.118 50.192 297.118 48.336ZM304.318 48.336C304.318 50.096 304.814 51.52 305.806 52.608C306.83 53.696 308.254 54.24 310.078 54.24C311.902 54.24 313.31 53.696 314.302 52.608C315.326 51.52 315.838 50.096 315.838 48.336C315.838 46.576 315.326 45.152 314.302 44.064C313.31 42.976 311.902 42.432 310.078 42.432C308.254 42.432 306.83 42.976 305.806 44.064C304.814 45.152 304.318 46.576 304.318 48.336ZM327.278 36.672H334.478V40.416H334.574C335.342 38.976 336.254 37.904 337.31 37.2C338.366 36.464 339.694 36.096 341.294 36.096C341.71 36.096 342.126 36.112 342.542 36.144C342.958 36.176 343.342 36.24 343.694 36.336V42.912C343.182 42.752 342.67 42.64 342.158 42.576C341.678 42.48 341.166 42.432 340.622 42.432C339.246 42.432 338.158 42.624 337.358 43.008C336.558 43.392 335.934 43.936 335.486 44.64C335.07 45.312 334.798 46.128 334.67 47.088C334.542 48.048 334.478 49.104 334.478 50.256V60H327.278V36.672ZM347.669 36.672H354.581V39.84H354.677C354.901 39.392 355.221 38.944 355.637 38.496C356.053 38.048 356.549 37.648 357.125 37.296C357.701 36.944 358.357 36.656 359.093 36.432C359.829 36.208 360.629 36.096 361.493 36.096C363.125 36.096 364.565 36.432 365.813 37.104C367.093 37.776 368.053 38.832 368.693 40.272C369.525 38.768 370.533 37.696 371.717 37.056C372.901 36.416 374.357 36.096 376.085 36.096C377.653 36.096 378.965 36.368 380.021 36.912C381.109 37.424 381.957 38.144 382.565 39.072C383.205 39.968 383.653 41.04 383.909 42.288C384.197 43.504 384.341 44.816 384.341 46.224V60H377.141V46.416C377.141 45.328 376.901 44.4 376.421 43.632C375.973 42.832 375.157 42.432 373.973 42.432C373.141 42.432 372.437 42.576 371.861 42.864C371.317 43.12 370.869 43.488 370.517 43.968C370.197 44.448 369.957 45.008 369.797 45.648C369.669 46.288 369.605 46.96 369.605 47.664V60H362.405V47.664C362.405 47.248 362.389 46.736 362.357 46.128C362.325 45.52 362.213 44.944 362.021 44.4C361.829 43.856 361.509 43.392 361.061 43.008C360.645 42.624 360.021 42.432 359.189 42.432C358.261 42.432 357.509 42.608 356.933 42.96C356.357 43.28 355.909 43.728 355.589 44.304C355.301 44.848 355.109 45.472 355.013 46.176C354.917 46.88 354.869 47.616 354.869 48.384V60H347.669V36.672Z" fill="black"/>
<path d="M38 0H94C118.853 0 139 20.1472 139 45C139 69.5186 119.391 89.4573 95 89.9891V90H20C17.2386 90 15 87.7614 15 85C15 82.2386 17.2386 80 20 80H60C62.7614 80 65 77.7614 65 75C65 72.2386 62.7614 70 60 70H33C30.2386 70 28 67.7614 28 65C28 62.2386 30.2386 60 33 60H69C71.7614 60 74 57.7614 74 55C74 52.2386 71.7614 50 69 50H5C2.23858 50 0 47.7614 0 45C0 42.2386 2.23858 40 5 40H54C56.7614 40 59 37.7614 59 35C59 32.2386 56.7614 30 54 30H15C12.2386 30 10 27.7614 10 25C10 22.2386 12.2386 20 15 20H74C76.7614 20 79 17.7614 79 15C79 12.2386 76.7614 10 74 10H38C35.2386 10 33 7.76142 33 5C33 2.23858 35.2386 0 38 0Z" fill="url(#paint0_linear_78_39)"/>
<defs>
<linearGradient id="paint0_linear_78_39" x1="139" y1="45" x2="49" y2="45" gradientUnits="userSpaceOnUse">
<stop stop-color="#FF36F7"/>
<stop offset="1" stop-color="#793DE1"/>
</linearGradient>
</defs>
</svg>
